<svg xmlns="http://www.w3.org/2000/svg" viewBox="0 0 565.18 88.12"><path d="M562.85 15.93c1.91 0 2.33-.58 2.33-2.33v-10c0-1.78-.35-2.33-2.33-2.33h-49.8c-1.87 0-2.32.65-2.32 2.33v81a2.32 2.32 0 002.32 2.32h49.8c1.94 0 2.33-.5 2.33-2.32v-10c0-1.77-.39-2.33-2.33-2.33h-36.22V50.8h30.23c1.84 0 2.32-.36 2.32-2.33V38.32c0-1.79-.36-2.33-2.32-2.33h-30.23V15.93zM380.83 1.24h-11.62c-1.85 0-2.32.64-2.32 2.33v50.17c0 10.27-7.22 18.47-17.87 18.47s-17.74-8.2-17.74-18.6v-50c0-1.63-.49-2.33-2.33-2.33h-11.62c-1.8 0-2.32.6-2.32 2.33v50.9a33.55 33.55 0 0034 33.65c19.33 0 34.14-15.05 34.14-33.65V3.57c.01-1.77-.55-2.33-2.32-2.33zm-80.23-.05h-53.47c-1.7 0-2.33.75-2.33 2.32v10c0 1.74.59 2.32 2.33 2.32h18.72v68.69c0 1.64.63 2.32 2.32 2.32h11.38a2.05 2.05 0 002.33-2.32V15.87h18.72c1.89 0 2.32-.52 2.32-2.32v-10c0-1.68-.51-2.36-2.32-2.36zm-89.38 35.03c-9.91-4-14.43-7.95-14.43-13.71 0-3.91 3.79-8.56 10.76-8.56 6.73 0 16 6.12 17 6.73 1.47 1 2.63 1 4.28-1.47l4.65-7c1.23-1.93 1.48-2.53-.73-4-2.53-1.72-12-8.2-24.47-8.2-19.46 0-27.53 12.6-27.53 23.49 0 14.44 11.5 21.78 23 26.43 10.25 4.15 15.55 8.43 15.55 14.68 0 5.26-4.77 9.42-11.14 9.42-7.95 0-17.86-7.22-18.47-7.59-1.66-1.29-2.92-1.31-4.16.86l-4.41 7.58c-1.26 2.26-.69 2.37.62 3.67 2.44 2.33 11.5 9.55 26.91 9.55 17.26 0 28.15-11.63 28.15-24.23 0-15.78-13.71-22.87-25.58-27.65zM74 72.93l-7.56-7.83c-1-1.09-1.35-1.41-3.06 0a29.06 29.06 0 01-18.72 7c-15.66 0-27.41-13-27.41-28.27s11.63-28.54 27.29-28.54a29.26 29.26 0 0118.84 7.22c1.51 1.31 1.91 1.26 3.06 0l7.46-7.7c1.39-1.31 1.51-2-.12-3.43C65.37 4 56.53 0 44.17 0a44.05 44.05 0 100 88.1A42.13 42.13 0 0073.9 76.23c1.56-1.5 1.58-1.95.1-3.3zm51.76-57.02a28.3 28.3 0 00-28 28.26 28.08 28.08 0 1156.16 0 28.4 28.4 0 00-28.16-28.26z"/><path d="M125.76 0a43.87 43.87 0 00-43.93 44.17 44 44 0 0088 0A44 44 0 00125.76 0zm28.14 44.19a28.08 28.08 0 01-56.16 0 28.08 28.08 0 1156.16 0z"/><path d="M125.76 72.19a28.09 28.09 0 01-28-28 28.08 28.08 0 0056.16 0 28.2 28.2 0 01-28.16 28zM479.2 1.86A2.07 2.07 0 00477 0h-2a2.12 2.12 0 00-2 1.24L446 59h-.37L418.75 1.24A2.23 2.23 0 00416.67 0h-1.95a2.08 2.08 0 00-2.21 1.84L398 84.08c-.29 2 .35 2.81 2.33 2.81h10.81a2 2 0 002.2-1.84l7.3-46.39h.36l21.65 48.08c.48 1 .73 1.35 2.08 1.35h2.21c1.28 0 1.56-.17 2.08-1.35l21.41-48.08h.37l7.44 46.37a2.66 2.66 0 002.33 1.83h10.9a2.13 2.13 0 002.21-2.81z"/></svg>
